<?xml version="1.0" standalone="no"?>
<!DOCTYPE svg PUBLIC "-//W3C//DTD SVG 20010904//EN"
 "http://www.w3.org/TR/2001/REC-SVG-20010904/DTD/svg10.dtd">
<svg version="1.0" xmlns="http://www.w3.org/2000/svg"
 width="1080.000000pt" height="1080.000000pt" viewBox="0 0 1080.000000 1080.000000"
 preserveAspectRatio="xMidYMid meet">
<metadata>
Created by potrace 1.16, written by Peter Selinger 2001-2019
</metadata>
<g transform="translate(0.000000,1080.000000) scale(0.100000,-0.100000)"
fill="#000000" stroke="none">
<path d="M5816 9328 c-3 -7 -7 -31 -10 -53 -3 -25 -14 -48 -29 -61 -18 -15
-22 -25 -16 -42 9 -23 57 -52 89 -52 11 0 20 -3 20 -8 0 -4 45 -45 100 -91
293 -245 595 -656 728 -991 16 -41 42 -97 56 -125 15 -27 47 -126 73 -220 l45
-170 -18 -91 c-17 -88 -17 -96 0 -180 9 -48 32 -129 51 -180 38 -100 41 -123
23 -175 -24 -71 -130 -201 -199 -245 -41 -26 -93 -107 -86 -134 3 -12 -3 -21
-19 -29 -27 -12 -28 -16 -13 -60 10 -30 9 -35 -17 -62 -25 -26 -29 -38 -28
-82 2 -76 11 -164 23 -226 14 -67 14 -226 1 -309 -9 -50 -20 -76 -62 -135
-126 -176 -194 -261 -253 -312 -35 -31 -70 -70 -78 -88 -23 -47 -63 -83 -269
-241 -37 -28 -88 -56 -120 -66 -31 -9 -75 -31 -99 -48 -24 -17 -84 -48 -134
-68 -49 -20 -112 -47 -140 -59 -59 -27 -102 -40 -170 -54 -27 -5 -63 -14 -78
-20 -27 -10 -27 -11 -11 -36 13 -20 25 -25 55 -25 46 0 54 -25 13 -40 -14 -6
-41 -22 -59 -36 -25 -19 -54 -28 -105 -35 -39 -5 -80 -14 -93 -21 -19 -11
-169 -28 -252 -29 -54 0 -115 13 -115 25 0 19 22 36 46 36 13 0 25 4 29 9 3 5
19 12 35 16 17 4 30 11 30 16 0 5 12 14 27 20 41 15 15 30 -32 17 -37 -10
-197 -27 -275 -29 -48 -2 -249 19 -300 30 -23 5 -58 20 -78 34 -49 34 -216 87
-271 87 -24 0 -60 4 -80 10 -20 5 -70 16 -111 25 -118 26 -203 60 -365 143
-84 43 -118 67 -166 112 -20 19 -54 47 -77 62 -28 18 -64 63 -115 140 -41 62
-101 142 -134 178 -49 53 -215 262 -297 373 -11 14 -24 23 -28 21 -5 -3 -7 -2
-6 3 4 13 -195 304 -235 343 -19 19 -46 60 -60 91 -13 31 -41 79 -60 108 -57
82 -110 277 -94 346 18 84 -7 231 -44 255 -4 3 -9 21 -11 40 -3 36 -33 55 -48
30 -4 -7 -23 -15 -41 -19 -27 -5 -35 -13 -40 -36 -12 -55 -9 -169 6 -235 9
-36 20 -101 26 -145 9 -73 40 -197 90 -365 11 -35 31 -85 45 -109 14 -25 40
-80 58 -123 39 -88 137 -243 172 -271 14 -10 24 -29 24 -43 0 -13 5 -24 10
-24 18 0 11 -46 -11 -74 -36 -45 -14 -69 81 -90 17 -4 74 -64 175 -181 82 -97
171 -192 196 -212 26 -20 62 -55 79 -78 23 -31 60 -58 136 -99 57 -31 106 -61
110 -67 3 -6 74 -43 158 -84 83 -40 169 -85 191 -100 45 -31 295 -125 400
-150 39 -9 79 -20 90 -25 60 -24 103 -32 122 -22 15 8 33 7 69 -4 99 -30 191
-45 269 -44 44 1 110 -4 146 -11 101 -19 444 0 518 30 58 23 127 41 281 71
126 25 155 34 279 87 160 68 311 150 396 216 5 4 57 38 115 76 58 38 135 96
172 128 36 32 78 66 92 76 14 10 51 50 83 90 31 40 95 113 142 162 48 50 107
117 133 151 80 104 188 277 200 319 6 22 21 63 34 92 13 28 24 56 24 61 0 5 7
15 15 22 8 7 24 42 35 79 11 36 29 81 40 99 11 18 20 39 20 46 0 8 4 16 8 18
14 6 51 160 87 373 l37 210 -7 245 c-7 281 -18 410 -46 530 -40 175 -92 347
-124 410 -18 36 -47 113 -65 170 -59 191 -98 257 -332 558 -152 194 -561 551
-731 638 -35 18 -48 21 -51 12z m1192 -1914 c18 -5 22 -13 22 -48 0 -22 7 -50
15 -60 10 -13 15 -44 15 -91 0 -39 7 -98 16 -130 15 -54 21 -93 40 -257 7 -58
-9 -163 -40 -265 -13 -43 -29 -114 -36 -158 -18 -118 -45 -183 -95 -230 -41
-39 -42 -42 -49 -124 -8 -91 -17 -120 -76 -246 -47 -101 -171 -265 -200 -265
-6 0 -10 29 -10 68 0 61 3 71 30 100 30 33 30 34 30 150 0 64 -5 169 -11 232
-16 158 -15 195 5 270 10 36 20 81 23 100 3 19 11 42 18 50 8 8 17 27 20 43
11 42 67 84 107 78 4 0 12 14 18 33 6 18 22 44 36 57 23 22 76 120 88 164 17
61 15 108 -5 152 -22 48 -34 113 -42 231 -5 66 -4 72 14 72 22 0 23 4 7 29
-24 38 4 60 60 45z m-4798 -1393 c10 -15 22 -42 28 -62 5 -19 21 -54 35 -76
33 -51 120 -139 147 -148 11 -4 20 -15 20 -26 0 -11 11 -31 25 -45 14 -14 25
-29 25 -34 0 -6 42 -57 93 -114 220 -248 247 -282 247 -320 0 -10 12 -45 27
-78 37 -83 22 -95 -54 -42 -80 54 -120 90 -152 138 -22 32 -39 44 -74 53 -40
11 -51 21 -100 91 -31 44 -73 94 -95 113 -41 35 -61 68 -82 132 -6 21 -27 61
-46 90 -21 31 -34 64 -34 83 0 33 -25 71 -49 76 -8 2 -30 34 -48 72 -18 38
-43 82 -54 98 l-21 29 22 24 23 25 49 -27 c27 -15 58 -38 68 -52z"/>
</g>
</svg>
